<svg xmlns="http://www.w3.org/2000/svg" xmlns:xlink="http://www.w3.org/1999/xlink" version="1.1" width="1000" height="1000" viewBox="0 0 1000 1000" xml:space="preserve">
<desc>Created with Fabric.js 3.5.0</desc>
<defs>
</defs>
<rect x="0" y="0" width="100%" height="100%" fill="#ffffff"/>
<g transform="matrix(1.2315 0 0 1.2315 500.0135 500.0102)" id="188349">
<g style="" vector-effect="non-scaling-stroke">
		<g transform="matrix(1 0 0 1 -98.208 107.2416)" id="a9afa624-d143-4da3-9790-afb66062e65a">
<path style="stroke: none; stroke-width: 1; stroke-dasharray: none; stroke-linecap: butt; stroke-dashoffset: 0; stroke-linejoin: miter; stroke-miterlimit: 4; is-custom-font: none; font-file-url: none; fill: rgb(92,219,149); fill-rule: nonzero; opacity: 1;" transform=" translate(-501.792, -599.2718)" d="M 535.17415 599.59713 c 0 19.24928 -14.948 34.85393 -33.38792 34.85393 s -33.38792 -15.60461 -33.38792 -34.85393 c 0 -0.43634 0.00676 -0.86964 0.0246 -1.3023 c 0.33849 -19.24559 15.56341 -34.5554 33.99969 -34.196 s 33.10172 16.2527 32.75707 35.49829 Z" stroke-linecap="round"/>
</g>
		<g transform="matrix(1 0 0 1 -98.2079 108.3867)" id="e3bc7ff1-d70c-4de9-8a31-9e1cd8f5d93e">
<path style="stroke: none; stroke-width: 1; stroke-dasharray: none; stroke-linecap: butt; stroke-dashoffset: 0; stroke-linejoin: miter; stroke-miterlimit: 4; is-custom-font: none; font-file-url: none; fill: rgb(255,255,255); fill-rule: nonzero; opacity: 1;" transform=" translate(-501.7921, -600.4169)" d="M 490.02877 615.07623 l -9.61633 -12.8222 l 2.27715 -1.7091 l 7.83463 10.44595 l 30.84427 -25.23327 l 1.80325 2.20391 Z" stroke-linecap="round"/>
</g>
		<g transform="matrix(1 0 0 1 0 277.8733)" id="a7b62467-cb6d-4a33-bede-3daf66fae9b8">
<rect style="stroke: none; stroke-width: 1; stroke-dasharray: none; stroke-linecap: butt; stroke-dashoffset: 0; stroke-linejoin: miter; stroke-miterlimit: 4; is-custom-font: none; font-file-url: none; fill: rgb(230,230,230); fill-rule: nonzero; opacity: 1;" x="-369.11" y="-1" rx="0" ry="0" width="738.22" height="2"/>
</g>
		<g transform="matrix(1 0 0 1 153.1059 -90.452)" id="ab0ed44f-d533-4992-a1b3-ca9ac72248ac">
<path style="stroke: none; stroke-width: 1; stroke-dasharray: none; stroke-linecap: butt; stroke-dashoffset: 0; stroke-linejoin: miter; stroke-miterlimit: 4; is-custom-font: none; font-file-url: none; fill: rgb(160,97,106); fill-rule: nonzero; opacity: 1;" transform=" translate(-753.1059, -401.5782)" d="M 716.948 409.11358 a 14.21117 14.21117 0 0 1 1.987 1.108 l 63.154 -26.954 l 2.253 -16.636 l 25.235 -0.155 l -1.491 38.158 l -83.357 22.047 a 14.94008 14.94008 0 0 1 -0.631 1.7 a 14.411 14.411 0 1 1 -7.151 -19.265 Z" stroke-linecap="round"/>
</g>
		<g transform="matrix(1 0 0 1 206.0175 229.5523)" id="e96706e1-851e-4da2-ad9b-ad313a8c64fc">
<path style="stroke: none; stroke-width: 1; stroke-dasharray: none; stroke-linecap: butt; stroke-dashoffset: 0; stroke-linejoin: miter; stroke-miterlimit: 4; is-custom-font: none; font-file-url: none; fill: rgb(160,97,106); fill-rule: nonzero; opacity: 1;" transform=" translate(-806.0175, -721.5825)" d="M 818.754 754.87454 H 801.491 l -8.212 -66.584 h 25.477 Z" stroke-linecap="round"/>
</g>
		<g transform="matrix(1 0 0 1 195.326 268.3864)" id="b540b71d-0f03-4ed3-b276-b3415efc1443">
<path style="stroke: none; stroke-width: 1; stroke-dasharray: none; stroke-linecap: butt; stroke-dashoffset: 0; stroke-linejoin: miter; stroke-miterlimit: 4; is-custom-font: none; font-file-url: none; fill: rgb(47,46,65); fill-rule: nonzero; opacity: 1;" transform=" translate(-795.326, -760.4166)" d="M 789.161 749.94255 h 33.292 v 20.955 H 768.199 a 20.962 20.962 0 0 1 20.962 -20.962 h 0 Z" stroke-linecap="round"/>
</g>
		<g transform="matrix(1 0 0 1 269.951 225.6819)" id="b87c34d6-a0a3-40d8-a436-08cd71fc342e">
<path style="stroke: none; stroke-width: 1; stroke-dasharray: none; stroke-linecap: butt; stroke-dashoffset: 0; stroke-linejoin: miter; stroke-miterlimit: 4; is-custom-font: none; font-file-url: none; fill: rgb(160,97,106); fill-rule: nonzero; opacity: 1;" transform=" translate(-869.951, -717.7121)" d="M 885.89 749.99658 l -17.178 1.69 l -14.7 -65.458 l 25.355 -2.491 Z" stroke-linecap="round"/>
</g>
		<g transform="matrix(1 0 0 1 264.0843 265.7864)" id="bb56473f-8578-4371-8d17-16b3f8ffc95c">
<path style="stroke: none; stroke-width: 1; stroke-dasharray: none; stroke-linecap: butt; stroke-dashoffset: 0; stroke-linejoin: miter; stroke-miterlimit: 4; is-custom-font: none; font-file-url: none; fill: rgb(47,46,65); fill-rule: nonzero; opacity: 1;" transform=" translate(-864.0843, -757.8166)" d="M 855.946 747.99257 l 33.126 -3.263 l 2.054 20.857 l -53.981 5.317 a 20.958 20.958 0 0 1 18.8 -22.911 Z" stroke-linecap="round"/>
</g>
		<g transform="matrix(1 0 0 1 223.559 -230.6056)" id="b06ede21-2df7-4399-95f3-667c473f6547">
<circle style="stroke: none; stroke-width: 1; stroke-dasharray: none; stroke-linecap: butt; stroke-dashoffset: 0; stroke-linejoin: miter; stroke-miterlimit: 4; is-custom-font: none; font-file-url: none; fill: rgb(160,97,106); fill-rule: nonzero; opacity: 1;" cx="0" cy="0" r="34.583"/>
</g>
		<g transform="matrix(1 0 0 1 221.4547 127.69)" id="e3edd339-fa60-4375-a5a7-b8711a5f77a0">
<path style="stroke: none; stroke-width: 1; stroke-dasharray: none; stroke-linecap: butt; stroke-dashoffset: 0; stroke-linejoin: miter; stroke-miterlimit: 4; is-custom-font: none; font-file-url: none; fill: rgb(47,46,65); fill-rule: nonzero; opacity: 1;" transform=" translate(-821.4547, -619.7202)" d="M 797.633 741.40854 a 6.3 6.3 0 0 1 -6.217 -5.21 c -8.929 -49.59 -38.141 -211.772 -38.84 -216.268 a 1.99063 1.99063 0 0 1 -0.023 -0.312 V 507.52456 a 2.1 2.1 0 0 1 0.393 -1.228 l 3.858 -5.4 a 2.082 2.082 0 0 1 1.611 -0.88 c 22 -1.031 94.036 -4.054 97.516 0.294 h 0 c 3.495 4.365 2.253 17.611 1.971 20.22 l 0.014 0.272 l 32.366 206.98211 a 6.353 6.353 0 0 1 -5.233 7.23 l -20.214 3.33 a 6.366 6.366 0 0 1 -7.076 -4.355 c -6.252 -19.978 -27.216 -87.184 -34.482 -113.19 a 0.7 0.7 0 0 0 -1.381 0.2 c 0.363 24.79 1.24 88.036 1.549 109.881 l 0.032 2.353 a 6.362 6.362 0 0 1 -5.763 6.387 l -19.492 1.766 A 5.8754 5.8754 0 0 1 797.633 741.40854 Z" stroke-linecap="round"/>
</g>
		<g transform="matrix(1 0 0 1 213.358 -78.9269)" id="fafafea0-d187-42ce-9adc-60692d5c21c2">
<path style="stroke: none; stroke-width: 1; stroke-dasharray: none; stroke-linecap: butt; stroke-dashoffset: 0; stroke-linejoin: miter; stroke-miterlimit: 4; is-custom-font: none; font-file-url: none; fill: rgb(92,219,149); fill-rule: nonzero; opacity: 1;" transform=" translate(-813.358, -413.1033)" d="M 801.611 309.60656 c -6.035 3.588 -9.647 10.18 -11.719 16.9 a 160.07254 160.07254 0 0 0 -6.877 38.241 l -2.191 38.86 l -27.113 103.028 c 23.5 19.883 37.053 15.363 68.686 -0.9 s 35.246 5.422 35.246 5.422 l 6.325 -87.663 l 9.037 -95.793 a 42.48654 42.48654 0 0 0 -6.846 -6.581 a 69.923 69.923 0 0 0 -59.761 -12.673 Z" stroke-linecap="round"/>
</g>
		<g transform="matrix(1 0 0 1 229.2224 -72.2755)" id="bcb42d09-5dc7-4cce-9178-bbabc9608de0">
<path style="stroke: none; stroke-width: 1; stroke-dasharray: none; stroke-linecap: butt; stroke-dashoffset: 0; stroke-linejoin: miter; stroke-miterlimit: 4; is-custom-font: none; font-file-url: none; fill: rgb(160,97,106); fill-rule: nonzero; opacity: 1;" transform=" translate(-829.2225, -419.7546)" d="M 792.805 429.92056 a 14.82766 14.82766 0 0 1 2.112 0.986 l 62.447 -31.259 l 1.036 -16.933 l 25.759 -1.776 l 1.38 38.6 l -83.45 27.6 a 14.784 14.784 0 1 1 -9.283 -17.223 Z" stroke-linecap="round"/>
</g>
		<g transform="matrix(1 0 0 1 265.077 -129.5813)" id="a6b68414-708f-47b2-ba8b-69f9e74523ce">
<path style="stroke: none; stroke-width: 1; stroke-dasharray: none; stroke-linecap: butt; stroke-dashoffset: 0; stroke-linejoin: miter; stroke-miterlimit: 4; is-custom-font: none; font-file-url: none; fill: rgb(92,219,149); fill-rule: nonzero; opacity: 1;" transform=" translate(-865.0769, -362.4489)" d="M 872.555 328.13256 c 15.363 5.422 18.071 64.171 18.071 64.171 c -18.075 -9.941 -39.765 6.326 -39.765 6.326 s -4.518 -15.365 -9.941 -35.246 a 34.54 34.54 0 0 1 7.229 -32.535 S 857.19 322.70758 872.555 328.13256 Z" stroke-linecap="round"/>
</g>
		<g transform="matrix(1 0 0 1 224.3651 -248.76)" id="bcacc9ce-a4f2-4033-9198-64d9603f2d9b">
<path style="stroke: none; stroke-width: 1; stroke-dasharray: none; stroke-linecap: butt; stroke-dashoffset: 0; stroke-linejoin: miter; stroke-miterlimit: 4; is-custom-font: none; font-file-url: none; fill: rgb(47,46,65); fill-rule: nonzero; opacity: 1;" transform=" translate(-824.3651, -243.2702)" d="M 854.562 270.56756 c -4.309 -3.447 -10.187 2.816 -10.187 2.816 l -3.447 -31.016 s -21.543 2.581 -35.334 -0.862 s -15.943 12.5 -15.943 12.5 a 110.65357 110.65357 0 0 1 -0.431 -19.391 c 0.862 -7.756 12.064 -15.512 31.885 -20.683 s 30.162 17.236 30.162 17.236 C 865.063 238.05658 858.876 274.01858 854.562 270.56756 Z" stroke-linecap="round"/>
</g>
		<g transform="matrix(1 0 0 1 -94.5511 -230.2144)" id="ae7b1516-7baa-4f85-8821-b2a97daeda5e">
<path style="stroke: none; stroke-width: 1; stroke-dasharray: none; stroke-linecap: butt; stroke-dashoffset: 0; stroke-linejoin: miter; stroke-miterlimit: 4; is-custom-font: none; font-file-url: none; fill: rgb(204,204,204); fill-rule: nonzero; opacity: 1;" transform=" translate(-505.4489, -261.8157)" d="M 392.01957 258.70856 a 3.10716 3.10716 0 0 0 0 6.21431 H 618.87829 a 3.10716 3.10716 0 0 0 0 -6.21431 Z" stroke-linecap="round"/>
</g>
		<g transform="matrix(1 0 0 1 -136.2769 -211.5715)" id="ae7b1516-7baa-4f85-8821-b2a97daeda5e">
<path style="stroke: none; stroke-width: 1; stroke-dasharray: none; stroke-linecap: butt; stroke-dashoffset: 0; stroke-linejoin: miter; stroke-miterlimit: 4; is-custom-font: none; font-file-url: none; fill: rgb(204,204,204); fill-rule: nonzero; opacity: 1;" transform=" translate(-463.7231, -280.4586)" d="M 392.01957 277.35146 a 3.10717 3.10717 0 0 0 -0.01311 6.21432 H 535.42889 a 3.10716 3.10716 0 1 0 0 -6.21432 Z" stroke-linecap="round"/>
</g>
		<g transform="matrix(1 0 0 1 2.9689 -257.2014)" id="baa6ea24-e79a-410b-95a0-90b7a92ae1c1">
<path style="stroke: none; stroke-width: 1; stroke-dasharray: none; stroke-linecap: butt; stroke-dashoffset: 0; stroke-linejoin: miter; stroke-miterlimit: 4; is-custom-font: none; font-file-url: none; fill: rgb(92,219,149); fill-rule: nonzero; opacity: 1;" transform=" translate(-602.9689, -234.8288)" d="M 616.03488 234.95609 c 0 7.53426 -5.8507 13.642 -13.06819 13.642 s -13.0682 -6.10772 -13.0682 -13.642 c 0 -0.17079 0.00265 -0.34038 0.00963 -0.50973 c 0.13249 -7.53282 6.09159 -13.52515 13.30764 -13.38447 s 12.95618 6.36138 12.82128 13.8942 Z" stroke-linecap="round"/>
</g>
		<g transform="matrix(1 0 0 1 2.969 -256.7533)" id="a0820f47-ad40-463a-872c-13bb80005143">
<path style="stroke: none; stroke-width: 1; stroke-dasharray: none; stroke-linecap: butt; stroke-dashoffset: 0; stroke-linejoin: miter; stroke-miterlimit: 4; is-custom-font: none; font-file-url: none; fill: rgb(255,255,255); fill-rule: nonzero; opacity: 1;" transform=" translate(-602.969, -235.2769)" d="M 598.36476 241.01468 l -3.76388 -5.01867 l 0.89129 -0.669 l 3.06651 4.0886 l 12.0726 -9.87642 l 0.7058 0.86262 Z" stroke-linecap="round"/>
</g>
		<g transform="matrix(1 0 0 1 -94.5511 -116.2144)" id="ae7b1516-7baa-4f85-8821-b2a97daeda5e">
<path style="stroke: none; stroke-width: 1; stroke-dasharray: none; stroke-linecap: butt; stroke-dashoffset: 0; stroke-linejoin: miter; stroke-miterlimit: 4; is-custom-font: none; font-file-url: none; fill: rgb(204,204,204); fill-rule: nonzero; opacity: 1;" transform=" translate(-505.4489, -375.8157)" d="M 392.01957 372.70856 a 3.10716 3.10716 0 0 0 0 6.21431 H 618.87829 a 3.10716 3.10716 0 0 0 0 -6.21431 Z" stroke-linecap="round"/>
</g>
		<g transform="matrix(1 0 0 1 -136.2769 -97.5715)" id="ae7b1516-7baa-4f85-8821-b2a97daeda5e">
<path style="stroke: none; stroke-width: 1; stroke-dasharray: none; stroke-linecap: butt; stroke-dashoffset: 0; stroke-linejoin: miter; stroke-miterlimit: 4; is-custom-font: none; font-file-url: none; fill: rgb(204,204,204); fill-rule: nonzero; opacity: 1;" transform=" translate(-463.7231, -394.4586)" d="M 392.01957 391.35146 a 3.10717 3.10717 0 0 0 -0.01311 6.21432 H 535.42889 a 3.10716 3.10716 0 1 0 0 -6.21432 Z" stroke-linecap="round"/>
</g>
		<g transform="matrix(1 0 0 1 1.9689 -143.2014)" id="b63fc892-67cf-40d0-9003-f173040a559c">
<path style="stroke: none; stroke-width: 1; stroke-dasharray: none; stroke-linecap: butt; stroke-dashoffset: 0; stroke-linejoin: miter; stroke-miterlimit: 4; is-custom-font: none; font-file-url: none; fill: rgb(92,219,149); fill-rule: nonzero; opacity: 1;" transform=" translate(-601.9689, -348.8288)" d="M 615.03488 348.95609 c 0 7.53426 -5.8507 13.642 -13.06819 13.642 s -13.0682 -6.10772 -13.0682 -13.642 c 0 -0.17079 0.00265 -0.34038 0.00963 -0.50973 c 0.13249 -7.53282 6.09159 -13.52515 13.30764 -13.38447 s 12.95618 6.36138 12.82128 13.8942 Z" stroke-linecap="round"/>
</g>
		<g transform="matrix(1 0 0 1 1.969 -142.7533)" id="b8e61bbe-38fc-40ac-ac8c-5bb63bac7af2">
<path style="stroke: none; stroke-width: 1; stroke-dasharray: none; stroke-linecap: butt; stroke-dashoffset: 0; stroke-linejoin: miter; stroke-miterlimit: 4; is-custom-font: none; font-file-url: none; fill: rgb(255,255,255); fill-rule: nonzero; opacity: 1;" transform=" translate(-601.969, -349.277)" d="M 597.36476 355.01468 l -3.76388 -5.01867 l 0.89129 -0.66895 l 3.06651 4.0886 l 12.0726 -9.87642 l 0.7058 0.86262 Z" stroke-linecap="round"/>
</g>
		<g transform="matrix(1 0 0 1 -94.5511 -2.2144)" id="ae7b1516-7baa-4f85-8821-b2a97daeda5e">
<path style="stroke: none; stroke-width: 1; stroke-dasharray: none; stroke-linecap: butt; stroke-dashoffset: 0; stroke-linejoin: miter; stroke-miterlimit: 4; is-custom-font: none; font-file-url: none; fill: rgb(204,204,204); fill-rule: nonzero; opacity: 1;" transform=" translate(-505.4489, -489.8157)" d="M 392.01957 486.70856 a 3.10716 3.10716 0 0 0 0 6.21431 H 618.87829 a 3.10716 3.10716 0 0 0 0 -6.21431 Z" stroke-linecap="round"/>
</g>
		<g transform="matrix(1 0 0 1 -136.2769 16.4285)" id="ae7b1516-7baa-4f85-8821-b2a97daeda5e">
<path style="stroke: none; stroke-width: 1; stroke-dasharray: none; stroke-linecap: butt; stroke-dashoffset: 0; stroke-linejoin: miter; stroke-miterlimit: 4; is-custom-font: none; font-file-url: none; fill: rgb(204,204,204); fill-rule: nonzero; opacity: 1;" transform=" translate(-463.7231, -508.4586)" d="M 392.01957 505.35146 a 3.10717 3.10717 0 0 0 -0.01311 6.21432 H 535.42889 a 3.10716 3.10716 0 1 0 0 -6.21432 Z" stroke-linecap="round"/>
</g>
		<g transform="matrix(1 0 0 1 1.9689 -29.2014)" id="f67391c6-f0f4-4d09-a78c-675b0edf0c3b">
<path style="stroke: none; stroke-width: 1; stroke-dasharray: none; stroke-linecap: butt; stroke-dashoffset: 0; stroke-linejoin: miter; stroke-miterlimit: 4; is-custom-font: none; font-file-url: none; fill: rgb(92,219,149); fill-rule: nonzero; opacity: 1;" transform=" translate(-601.9689, -462.8288)" d="M 615.03488 462.95609 c 0 7.53426 -5.8507 13.642 -13.06819 13.642 s -13.0682 -6.10772 -13.0682 -13.642 c 0 -0.17079 0.00265 -0.34038 0.00963 -0.50973 c 0.13249 -7.53282 6.09159 -13.52515 13.30764 -13.38447 s 12.95618 6.36138 12.82128 13.8942 Z" stroke-linecap="round"/>
</g>
		<g transform="matrix(1 0 0 1 1.969 -28.7533)" id="e94ecbaf-2ca7-4fd5-871d-ab097a8f2c0d">
<path style="stroke: none; stroke-width: 1; stroke-dasharray: none; stroke-linecap: butt; stroke-dashoffset: 0; stroke-linejoin: miter; stroke-miterlimit: 4; is-custom-font: none; font-file-url: none; fill: rgb(255,255,255); fill-rule: nonzero; opacity: 1;" transform=" translate(-601.969, -463.277)" d="M 597.36476 469.01468 l -3.76388 -5.01867 l 0.89129 -0.66895 l 3.06651 4.0886 l 12.0726 -9.87642 l 0.7058 0.86262 Z" stroke-linecap="round"/>
</g>
</g>
</g>
</svg>