<svg xmlns="http://www.w3.org/2000/svg" xmlns:xlink="http://www.w3.org/1999/xlink" version="1.1" width="1000" height="1000" viewBox="0 0 1000 1000" xml:space="preserve">
<desc>Created with Fabric.js 3.5.0</desc>
<defs>
</defs>
<rect x="0" y="0" width="100%" height="100%" fill="#ffffff"/>
<g transform="matrix(1 0 0 1 500 500)" id="963140">
<g style="" vector-effect="non-scaling-stroke">
		<g transform="matrix(1.0287 0 0 1.0287 80.9439 93.1046)" id="a6d09f17-7a71-4d3b-9de6-8b8ba964cb80">
<path style="stroke: none; stroke-width: 1; stroke-dasharray: none; stroke-linecap: butt; stroke-dashoffset: 0; stroke-linejoin: miter; stroke-miterlimit: 4; is-custom-font: none; font-file-url: none; fill: rgb(230,230,230); fill-rule: nonzero; opacity: 1;" transform=" translate(-678.4372, -540.5076)" d="M 815.4375 655.50781 H 541.437 a 16.519 16.519 0 0 1 -16.5 -16.5 V 442.00732 a 16.51868 16.51868 0 0 1 16.5 -16.5 H 815.4375 a 16.519 16.519 0 0 1 16.5 16.5 V 639.00781 A 16.51929 16.51929 0 0 1 815.4375 655.50781 Z" stroke-linecap="round"/>
</g>
		<g transform="matrix(1.0287 0 0 1.0287 80.944 93.1046)" id="a6d09f17-7a71-4d3b-9de6-8b8ba964cb80">
<path style="stroke: none; stroke-width: 1; stroke-dasharray: none; stroke-linecap: butt; stroke-dashoffset: 0; stroke-linejoin: miter; stroke-miterlimit: 4; is-custom-font: none; font-file-url: none; fill: rgb(255,255,255); fill-rule: nonzero; opacity: 1;" transform=" translate(-678.4371, -540.5074)" d="M 546.50182 642.35455 h 263.8706 a 8 8 0 0 0 8 -8 V 446.66021 a 8 8 0 0 0 -8 -8 H 546.50182 a 8 8 0 0 0 -8 8 V 634.35455 A 8 8 0 0 0 546.50182 642.35455 Z" stroke-linecap="round"/>
</g>
		<g transform="matrix(1.0287 0 0 1.0287 -296.64 -178.9674)" id="a6d09f17-7a71-4d3b-9de6-8b8ba964cb80">
<path style="stroke: none; stroke-width: 1; stroke-dasharray: none; stroke-linecap: butt; stroke-dashoffset: 0; stroke-linejoin: miter; stroke-miterlimit: 4; is-custom-font: none; font-file-url: none; fill: rgb(230,230,230); fill-rule: nonzero; opacity: 1;" transform=" translate(-311.396, -276.0322)" d="M 448.396 391.03223 h -274 a 16.51867 16.51867 0 0 1 -16.5 -16.5 v -197 a 16.51866 16.51866 0 0 1 16.5 -16.5 h 274 a 16.51867 16.51867 0 0 1 16.5 16.5 v 197 A 16.51868 16.51868 0 0 1 448.396 391.03223 Z" stroke-linecap="round"/>
</g>
		<g transform="matrix(1.0287 0 0 1.0287 -296.6397 -178.9672)" id="a6d09f17-7a71-4d3b-9de6-8b8ba964cb80">
<path style="stroke: none; stroke-width: 1; stroke-dasharray: none; stroke-linecap: butt; stroke-dashoffset: 0; stroke-linejoin: miter; stroke-miterlimit: 4; is-custom-font: none; font-file-url: none; fill: rgb(255,255,255); fill-rule: nonzero; opacity: 1;" transform=" translate(-311.396, -276.0322)" d="M 179.46072 377.87933 H 443.33133 a 8 8 0 0 0 8 -8 V 182.185 a 8 8 0 0 0 -8 -8 H 179.46072 a 8 8 0 0 0 -8 8 V 369.87933 A 8 8 0 0 0 179.46072 377.87933 Z" stroke-linecap="round"/>
</g>
		<g transform="matrix(1.0287 0 0 1.0287 97.6175 54.5224)" id="a6d09f17-7a71-4d3b-9de6-8b8ba964cb80">
<path style="stroke: none; stroke-width: 1; stroke-dasharray: none; stroke-linecap: butt; stroke-dashoffset: 0; stroke-linejoin: miter; stroke-miterlimit: 4; is-custom-font: none; font-file-url: none; fill: rgb(230,230,230); fill-rule: nonzero; opacity: 1;" transform=" translate(-694.6439, -503.0002)" d="M 778.91936 496.98053 H 610.36852 a 6.01968 6.01968 0 1 0 0 12.03936 H 778.91936 a 6.01968 6.01968 0 0 0 0 -12.03936 Z" stroke-linecap="round"/>
</g>
		<g transform="matrix(1.0287 0 0 1.0287 97.6175 92.6306)" id="a6d09f17-7a71-4d3b-9de6-8b8ba964cb80">
<path style="stroke: none; stroke-width: 1; stroke-dasharray: none; stroke-linecap: butt; stroke-dashoffset: 0; stroke-linejoin: miter; stroke-miterlimit: 4; is-custom-font: none; font-file-url: none; fill: rgb(230,230,230); fill-rule: nonzero; opacity: 1;" transform=" translate(-694.6439, -540.0443)" d="M 610.36852 534.02466 a 6.01968 6.01968 0 1 0 0 12.03936 H 778.91936 a 6.01968 6.01968 0 0 0 0 -12.03936 Z" stroke-linecap="round"/>
</g>
		<g transform="matrix(1.0287 0 0 1.0287 97.6175 130.7388)" id="a6d09f17-7a71-4d3b-9de6-8b8ba964cb80">
<path style="stroke: none; stroke-width: 1; stroke-dasharray: none; stroke-linecap: butt; stroke-dashoffset: 0; stroke-linejoin: miter; stroke-miterlimit: 4; is-custom-font: none; font-file-url: none; fill: rgb(230,230,230); fill-rule: nonzero; opacity: 1;" transform=" translate(-694.6439, -577.0885)" d="M 610.36852 571.06885 a 6.01968 6.01968 0 1 0 0 12.03936 H 778.91936 a 6.01968 6.01968 0 0 0 0 -12.03936 Z" stroke-linecap="round"/>
</g>
		<g transform="matrix(1.0287 0 0 1.0287 -21.945 54.9987)" id="a6d09f17-7a71-4d3b-9de6-8b8ba964cb80">
<circle style="stroke: none; stroke-width: 1; stroke-dasharray: none; stroke-linecap: butt; stroke-dashoffset: 0; stroke-linejoin: miter; stroke-miterlimit: 4; is-custom-font: none; font-file-url: none; fill: rgb(92,219,149); fill-rule: nonzero; opacity: 1;" cx="0" cy="0" r="7.40884"/>
</g>
		<g transform="matrix(1.0287 0 0 1.0287 -21.945 93.1069)" id="a6d09f17-7a71-4d3b-9de6-8b8ba964cb80">
<circle style="stroke: none; stroke-width: 1; stroke-dasharray: none; stroke-linecap: butt; stroke-dashoffset: 0; stroke-linejoin: miter; stroke-miterlimit: 4; is-custom-font: none; font-file-url: none; fill: rgb(230,230,230); fill-rule: nonzero; opacity: 1;" cx="0" cy="0" r="7.40884"/>
</g>
		<g transform="matrix(1.0287 0 0 1.0287 -21.945 131.215)" id="a6d09f17-7a71-4d3b-9de6-8b8ba964cb80">
<circle style="stroke: none; stroke-width: 1; stroke-dasharray: none; stroke-linecap: butt; stroke-dashoffset: 0; stroke-linejoin: miter; stroke-miterlimit: 4; is-custom-font: none; font-file-url: none; fill: rgb(230,230,230); fill-rule: nonzero; opacity: 1;" cx="0" cy="0" r="7.40884"/>
</g>
		<g transform="matrix(1.0287 0 0 1.0287 59.9866 54.5226)" id="a6d09f17-7a71-4d3b-9de6-8b8ba964cb80">
<path style="stroke: none; stroke-width: 1; stroke-dasharray: none; stroke-linecap: butt; stroke-dashoffset: 0; stroke-linejoin: miter; stroke-miterlimit: 4; is-custom-font: none; font-file-url: none; fill: rgb(92,219,149); fill-rule: nonzero; opacity: 1;" transform=" translate(-658.063, -503.0005)" d="M 711.77684 503.00018 h 0 a 6.01961 6.01961 0 0 1 -6.01965 6.01965 H 610.58538 a 6.167 6.167 0 0 1 -6.18439 -5.21972 a 6.03031 6.03031 0 0 1 5.96753 -6.81964 h 95.38867 a 6.01966 6.01966 0 0 1 6.01965 6.01965 Z" stroke-linecap="round"/>
</g>
		<g transform="matrix(1.0287 0 0 1.0287 80.9467 -75.9985)" id="a6d09f17-7a71-4d3b-9de6-8b8ba964cb80">
<circle style="stroke: none; stroke-width: 1; stroke-dasharray: none; stroke-linecap: butt; stroke-dashoffset: 0; stroke-linejoin: miter; stroke-miterlimit: 4; is-custom-font: none; font-file-url: none; fill: rgb(230,230,230); fill-rule: nonzero; opacity: 1;" cx="0" cy="0" r="24.07867"/>
</g>
		<g transform="matrix(0.1648 -1.0154 1.0154 0.1648 80.947 -75.9977)" id="a6d09f17-7a71-4d3b-9de6-8b8ba964cb80">
<circle style="stroke: none; stroke-width: 1; stroke-dasharray: none; stroke-linecap: butt; stroke-dashoffset: 0; stroke-linejoin: miter; stroke-miterlimit: 4; is-custom-font: none; font-file-url: none; fill: rgb(255,255,255); fill-rule: nonzero; opacity: 1;" cx="0" cy="0" r="12.03934"/>
</g>
		<g transform="matrix(1.0287 0 0 1.0287 -296.6392 -178.7121)" id="a6d09f17-7a71-4d3b-9de6-8b8ba964cb80">
<path style="stroke: none; stroke-width: 1; stroke-dasharray: none; stroke-linecap: butt; stroke-dashoffset: 0; stroke-linejoin: miter; stroke-miterlimit: 4; is-custom-font: none; font-file-url: none; fill: rgb(230,230,230); fill-rule: nonzero; opacity: 1;" transform=" translate(-311.396, -276.278)" d="M 198.9668 270.31231 a 5.96564 5.96564 0 1 0 0 11.93128 H 423.82524 a 5.96564 5.96564 0 1 0 0 -11.93128 Z" stroke-linecap="round"/>
</g>
		<g transform="matrix(1.0287 0 0 1.0287 -296.6392 -140.946)" id="a6d09f17-7a71-4d3b-9de6-8b8ba964cb80">
<path style="stroke: none; stroke-width: 1; stroke-dasharray: none; stroke-linecap: butt; stroke-dashoffset: 0; stroke-linejoin: miter; stroke-miterlimit: 4; is-custom-font: none; font-file-url: none; fill: rgb(230,230,230); fill-rule: nonzero; opacity: 1;" transform=" translate(-311.396, -312.9895)" d="M 198.9668 307.02389 a 5.96564 5.96564 0 1 0 0 11.93128 H 423.82524 a 5.96564 5.96564 0 0 0 0 -11.93128 Z" stroke-linecap="round"/>
</g>
		<g transform="matrix(1.0287 0 0 1.0287 -296.6368 -101.2916)" id="a6d09f17-7a71-4d3b-9de6-8b8ba964cb80">
<path style="stroke: none; stroke-width: 1; stroke-dasharray: none; stroke-linecap: butt; stroke-dashoffset: 0; stroke-linejoin: miter; stroke-miterlimit: 4; is-custom-font: none; font-file-url: none; fill: rgb(92,219,149); fill-rule: nonzero; opacity: 1;" transform=" translate(-311.396, -351.5367)" d="M 299.46477 345.57107 a 5.96564 5.96564 0 0 0 0 11.93128 h 23.86249 a 5.96564 5.96564 0 0 0 0 -11.93128 Z" stroke-linecap="round"/>
</g>
		<g transform="matrix(1.0287 0 0 1.0287 -296.6373 -236.92)" id="a6d09f17-7a71-4d3b-9de6-8b8ba964cb80">
<path style="stroke: none; stroke-width: 1; stroke-dasharray: none; stroke-linecap: butt; stroke-dashoffset: 0; stroke-linejoin: miter; stroke-miterlimit: 4; is-custom-font: none; font-file-url: none; fill: rgb(92,219,149); fill-rule: nonzero; opacity: 1;" transform=" translate(-311.396, -219.6957)" d="M 279.42037 194.562 a 1.83739 1.83739 0 0 0 -1.83557 1.83557 v 46.59619 a 1.83739 1.83739 0 0 0 1.83557 1.83557 h 63.95129 a 1.83739 1.83739 0 0 0 1.83557 -1.83557 V 196.39755 a 1.83739 1.83739 0 0 0 -1.83557 -1.83557 Z" stroke-linecap="round"/>
</g>
		<g transform="matrix(1.0287 0 0 1.0287 -296.6367 -242.2211)" id="a6d09f17-7a71-4d3b-9de6-8b8ba964cb80">
<circle style="stroke: none; stroke-width: 1; stroke-dasharray: none; stroke-linecap: butt; stroke-dashoffset: 0; stroke-linejoin: miter; stroke-miterlimit: 4; is-custom-font: none; font-file-url: none; fill: rgb(255,255,255); fill-rule: nonzero; opacity: 1;" cx="0" cy="0" r="10.09569"/>
</g>
		<g transform="matrix(1.0287 0 0 1.0287 -296.6382 -218.6172)" id="a6d09f17-7a71-4d3b-9de6-8b8ba964cb80">
<path style="stroke: none; stroke-width: 1; stroke-dasharray: none; stroke-linecap: butt; stroke-dashoffset: 0; stroke-linejoin: miter; stroke-miterlimit: 4; is-custom-font: none; font-file-url: none; fill: rgb(255,255,255); fill-rule: nonzero; opacity: 1;" transform=" translate(-311.3947, -237.4871)" d="M 327.91625 240.24038 a 10.01783 10.01783 0 0 1 -1.10135 4.589 H 295.97716 a 10.09444 10.09444 0 0 1 8.99432 -14.68463 h 12.84906 A 10.09 10.09 0 0 1 327.91625 240.229 Z" stroke-linecap="round"/>
</g>
		<g transform="matrix(1.0287 0 0 1.0287 -296.6367 -242.2211)" id="a6d09f17-7a71-4d3b-9de6-8b8ba964cb80">
<circle style="stroke: none; stroke-width: 1; stroke-dasharray: none; stroke-linecap: butt; stroke-dashoffset: 0; stroke-linejoin: miter; stroke-miterlimit: 4; is-custom-font: none; font-file-url: none; fill: rgb(255,255,255); fill-rule: nonzero; opacity: 1;" cx="0" cy="0" r="10.09569"/>
</g>
		<g transform="matrix(1.0287 0 0 1.0287 -296.6382 -218.6172)" id="a6d09f17-7a71-4d3b-9de6-8b8ba964cb80">
<path style="stroke: none; stroke-width: 1; stroke-dasharray: none; stroke-linecap: butt; stroke-dashoffset: 0; stroke-linejoin: miter; stroke-miterlimit: 4; is-custom-font: none; font-file-url: none; fill: rgb(255,255,255); fill-rule: nonzero; opacity: 1;" transform=" translate(-311.3947, -237.4871)" d="M 327.91625 240.24038 a 10.01783 10.01783 0 0 1 -1.10135 4.589 H 295.97716 a 10.09444 10.09444 0 0 1 8.99432 -14.68463 h 12.84906 A 10.09 10.09 0 0 1 327.91625 240.229 Z" stroke-linecap="round"/>
</g>
		<g transform="matrix(1.0287 0 0 1.0287 -296.637 -347.9664)" id="a6d09f17-7a71-4d3b-9de6-8b8ba964cb80">
<circle style="stroke: none; stroke-width: 1; stroke-dasharray: none; stroke-linecap: butt; stroke-dashoffset: 0; stroke-linejoin: miter; stroke-miterlimit: 4; is-custom-font: none; font-file-url: none; fill: rgb(230,230,230); fill-rule: nonzero; opacity: 1;" cx="0" cy="0" r="23.86253"/>
</g>
		<g transform="matrix(1.0287 0 0 1.0287 -296.6367 -347.9661)" id="a6d09f17-7a71-4d3b-9de6-8b8ba964cb80">
<circle style="stroke: none; stroke-width: 1; stroke-dasharray: none; stroke-linecap: butt; stroke-dashoffset: 0; stroke-linejoin: miter; stroke-miterlimit: 4; is-custom-font: none; font-file-url: none; fill: rgb(92,219,149); fill-rule: nonzero; opacity: 1;" cx="0" cy="0" r="11.93126"/>
</g>
		<g transform="matrix(1.0287 0 0 1.0287 306.387 336.473)" id="a6d09f17-7a71-4d3b-9de6-8b8ba964cb80">
<polygon style="stroke: none; stroke-width: 1; stroke-dasharray: none; stroke-linecap: butt; stroke-dashoffset: 0; stroke-linejoin: miter; stroke-miterlimit: 4; is-custom-font: none; font-file-url: none; fill: rgb(255,184,184); fill-rule: nonzero; opacity: 1;" points="8.4325,22.0485 -2.9995,22.0475 -8.4365,-22.0485 8.4365,-22.0465 8.4325,22.0485 "/>
</g>
		<g transform="matrix(1.0287 0 0 1.0287 299.1007 362.9344)" id="a6d09f17-7a71-4d3b-9de6-8b8ba964cb80">
<path style="stroke: none; stroke-width: 1; stroke-dasharray: none; stroke-linecap: butt; stroke-dashoffset: 0; stroke-linejoin: miter; stroke-miterlimit: 4; is-custom-font: none; font-file-url: none; fill: rgb(47,46,65); fill-rule: nonzero; opacity: 1;" transform=" translate(-732.6039, -714.9137)" d="M 728.52095 707.97276 h 22.04782 a 0 0 0 0 1 0 0 v 13.88195 a 0 0 0 0 1 0 0 H 714.639 a 0 0 0 0 1 0 0 v 0 A 13.88193 13.88193 0 0 1 728.52095 707.97276 Z" stroke-linecap="round"/>
</g>
		<g transform="matrix(1.0287 0 0 1.0287 369.779 336.473)" id="a6d09f17-7a71-4d3b-9de6-8b8ba964cb80">
<polygon style="stroke: none; stroke-width: 1; stroke-dasharray: none; stroke-linecap: butt; stroke-dashoffset: 0; stroke-linejoin: miter; stroke-miterlimit: 4; is-custom-font: none; font-file-url: none; fill: rgb(255,184,184); fill-rule: nonzero; opacity: 1;" points="8.4325,22.0485 -3.0005,22.0475 -8.4365,-22.0485 8.4365,-22.0465 8.4325,22.0485 "/>
</g>
		<g transform="matrix(1.0287 0 0 1.0287 362.4919 362.9344)" id="a6d09f17-7a71-4d3b-9de6-8b8ba964cb80">
<path style="stroke: none; stroke-width: 1; stroke-dasharray: none; stroke-linecap: butt; stroke-dashoffset: 0; stroke-linejoin: miter; stroke-miterlimit: 4; is-custom-font: none; font-file-url: none; fill: rgb(47,46,65); fill-rule: nonzero; opacity: 1;" transform=" translate(-794.2251, -714.9137)" d="M 790.14219 707.97276 H 812.19 a 0 0 0 0 1 0 0 v 13.88195 a 0 0 0 0 1 0 0 H 776.26026 a 0 0 0 0 1 0 0 v 0 A 13.88193 13.88193 0 0 1 790.14219 707.97276 Z" stroke-linecap="round"/>
</g>
		<g transform="matrix(1.0287 0 0 1.0287 344.0103 11.4096)" id="a6d09f17-7a71-4d3b-9de6-8b8ba964cb80">
<circle style="stroke: none; stroke-width: 1; stroke-dasharray: none; stroke-linecap: butt; stroke-dashoffset: 0; stroke-linejoin: miter; stroke-miterlimit: 4; is-custom-font: none; font-file-url: none; fill: rgb(255,184,184); fill-rule: nonzero; opacity: 1;" cx="0" cy="0" r="24.56103"/>
</g>
		<g transform="matrix(1.0287 0 0 1.0287 277.0429 169.2117)" id="a6d09f17-7a71-4d3b-9de6-8b8ba964cb80">
<path style="stroke: none; stroke-width: 1; stroke-dasharray: none; stroke-linecap: butt; stroke-dashoffset: 0; stroke-linejoin: miter; stroke-miterlimit: 4; is-custom-font: none; font-file-url: none; fill: rgb(255,184,184); fill-rule: nonzero; opacity: 1;" transform=" translate(-869.0579, -614.4875)" d="M 850.17313 621.26961 a 9.377 9.377 0 0 1 12.09227 -7.77928 l 13.72625 -16.45445 l 12.03377 5.9026 l -19.71048 22.96461 a 9.42779 9.42779 0 0 1 -18.14181 -4.63348 Z" stroke-linecap="round"/>
</g>
		<g transform="matrix(1.0287 0 0 1.0287 390.0535 177.7151)" id="a6d09f17-7a71-4d3b-9de6-8b8ba964cb80">
<path style="stroke: none; stroke-width: 1; stroke-dasharray: none; stroke-linecap: butt; stroke-dashoffset: 0; stroke-linejoin: miter; stroke-miterlimit: 4; is-custom-font: none; font-file-url: none; fill: rgb(255,184,184); fill-rule: nonzero; opacity: 1;" transform=" translate(-978.913, -622.7536)" d="M 968.30684 637.91125 a 9.37694 9.37694 0 0 1 6.03109 -13.05243 l 2.75577 -21.25 l 13.322 -1.47493 l -4.31317 29.95453 a 9.42778 9.42778 0 0 1 -17.79574 5.82288 Z" stroke-linecap="round"/>
</g>
		<g transform="matrix(1.0287 0 0 1.0287 385.9937 116.8824)" id="a6d09f17-7a71-4d3b-9de6-8b8ba964cb80">
<path style="stroke: none; stroke-width: 1; stroke-dasharray: none; stroke-linecap: butt; stroke-dashoffset: 0; stroke-linejoin: miter; stroke-miterlimit: 4; is-custom-font: none; font-file-url: none; fill: rgb(92,219,149); fill-rule: nonzero; opacity: 1;" transform=" translate(-974.9669, -563.6203)" d="M 954.68163 507.48222 l 0 0 a 12.08366 12.08366 0 0 1 20.75013 2.93029 l 20.13136 50.24026 a 31.21152 31.21152 0 0 1 1.90082 16.1937 l -6.5574 44.15842 a 4 4 0 0 1 -5.13083 3.23622 l -8.63923 -2.653 a 4 4 0 0 1 -2.79855 -4.28974 l 0 0 a 145.305 145.305 0 0 0 -11.66387 -76.2314 l -9.49042 -21.22808 A 12.08366 12.08366 0 0 1 954.68163 507.48222 Z" stroke-linecap="round"/>
</g>
		<g transform="matrix(1.0287 0 0 1.0287 344.0618 7.4431)" id="a6d09f17-7a71-4d3b-9de6-8b8ba964cb80">
<path style="stroke: none; stroke-width: 1; stroke-dasharray: none; stroke-linecap: butt; stroke-dashoffset: 0; stroke-linejoin: miter; stroke-miterlimit: 4; is-custom-font: none; font-file-url: none; fill: rgb(47,46,65); fill-rule: nonzero; opacity: 1;" transform=" translate(-934.2059, -457.2359)" d="M 940.13582 485.65159 a 26.205 26.205 0 1 0 -4.91018 -51.82531 c -5.40118 -3.27952 -11.6809 -5.48627 -17.97478 -4.925 s -12.51835 4.29789 -14.87192 10.16208 s 0.17487 13.59411 6.02708 15.97731 c 3.75184 1.52786 7.98866 0.78691 11.99255 0.1708 s 8.37171 -1.01818 11.85635 1.04773 s 5.05106 7.60548 1.93025 10.18835 a 10.73849 10.73849 0 0 0 -3.0842 11.82028 C 932.66943 482.32412 936.95033 485.58277 940.13582 485.65159 Z" stroke-linecap="round"/>
</g>
		<g transform="matrix(1.0287 0 0 1.0287 340.4436 261.5392)" id="a6d09f17-7a71-4d3b-9de6-8b8ba964cb80">
<path style="stroke: none; stroke-width: 1; stroke-dasharray: none; stroke-linecap: butt; stroke-dashoffset: 0; stroke-linejoin: miter; stroke-miterlimit: 4; is-custom-font: none; font-file-url: none; fill: rgb(47,46,65); fill-rule: nonzero; opacity: 1;" transform=" translate(-930.689, -704.2387)" d="M 970.60872 620.29851 l 4.35677 165.33965 a 4 4 0 0 1 -4.20243 4.10017 l -14.35213 -0.73225 a 4 4 0 0 1 -3.74658 -3.36683 L 935.59326 678.25019 a 2 2 0 0 0 -3.92705 -0.12223 l -23.10757 103.3966 a 4 4 0 0 1 -5.24374 2.89644 l -14.24375 -0.87 a 4 4 0 0 1 -2.64985 -4.05305 l 12.434 -160.76415 Z" stroke-linecap="round"/>
</g>
		<g transform="matrix(1.0287 0 0 1.0287 345.5792 115.7478)" id="a6d09f17-7a71-4d3b-9de6-8b8ba964cb80">
<path style="stroke: none; stroke-width: 1; stroke-dasharray: none; stroke-linecap: butt; stroke-dashoffset: 0; stroke-linejoin: miter; stroke-miterlimit: 4; is-custom-font: none; font-file-url: none; fill: rgb(92,219,149); fill-rule: nonzero; opacity: 1;" transform=" translate(-935.6812, -562.5176)" d="M 977.60063 541.76779 c 2.403 -25.05536 -16.01923 -47.71792 -41.12634 -49.5007 c -10.81772 -0.76813 -27.61219 -1.04272 -33.14841 13.13649 c -16.6774 42.71374 12.51774 41.67582 2.45885 78.68291 s -18.94295 39.128 -5.14122 41.8003 s 75.86672 18.447 73.31817 -7.60005 C 972.39515 602.27619 975.20367 566.76061 977.60063 541.76779 Z" stroke-linecap="round"/>
</g>
		<g transform="matrix(1.0287 0 0 1.0287 303.0071 112.5233)" id="a6d09f17-7a71-4d3b-9de6-8b8ba964cb80">
<path style="stroke: none; stroke-width: 1; stroke-dasharray: none; stroke-linecap: butt; stroke-dashoffset: 0; stroke-linejoin: miter; stroke-miterlimit: 4; is-custom-font: none; font-file-url: none; fill: rgb(92,219,149); fill-rule: nonzero; opacity: 1;" transform=" translate(-894.2974, -559.3828)" d="M 906.27914 501.059 l 0 0 a 12.08365 12.08365 0 0 1 16.29393 13.17809 l -7.8391 48.991 a 47.876 47.876 0 0 1 -10.26518 22.80676 L 879.00934 617.059 a 4 4 0 0 1 -6.06459 0.13914 l -6.04745 -6.71587 a 4 4 0 0 1 -0.196 -5.11814 l 1.7811 -2.31141 a 134.70322 134.70322 0 0 0 27.04466 -66.179 l 3.11643 -25.98472 A 12.08364 12.08364 0 0 1 906.27914 501.059 Z" stroke-linecap="round"/>
</g>
		<g transform="matrix(1.0287 0 0 1.0287 320.8084 371.4849)" id="a6d09f17-7a71-4d3b-9de6-8b8ba964cb80">
<path style="stroke: none; stroke-width: 1; stroke-dasharray: none; stroke-linecap: butt; stroke-dashoffset: 0; stroke-linejoin: miter; stroke-miterlimit: 4; is-custom-font: none; font-file-url: none; fill: rgb(204,204,204); fill-rule: nonzero; opacity: 1;" transform=" translate(-911.604, -811.1127)" d="M 1040.604 812.11269 h -258 a 1 1 0 0 1 0 -2 h 258 a 1 1 0 0 1 0 2 Z" stroke-linecap="round"/>
</g>
</g>
</g>
</svg>